<svg width="1920" height="777" viewBox="0 0 1920 777" fill="none" xmlns="http://www.w3.org/2000/svg">
<path d="M1920 759H0V257L1920 4V759Z" fill="#008CFF"/>
<path d="M1920 777H0V275L1920 22V777Z" fill="#172755"/>
<path opacity="0.03" d="M675 188.957C676.409 269.045 708.211 344.117 765.03 400.53C766.439 401.939 767.584 403.083 768.377 403.611C818.766 452.192 883.953 482.291 953.458 489.067C971.164 570.3 1016.44 642.203 1081.72 692.808C1144.44 741.389 1219.23 767 1297.98 767C1407.92 767 1509.23 717.275 1576.18 630.41C1608.51 588.518 1631.32 539.937 1642.6 488.803C1711.75 482.027 1776.76 452.016 1826.27 403.963C1827.42 402.819 1828.83 401.674 1829.97 400.618C1886.26 344.117 1918.33 269.397 1919.74 190.101C1920 187.812 1920 185.876 1920 183.676C1920 181.476 1920 179.452 1919.74 177.779C1918.33 100.508 1887.93 26.8439 1834.55 -28.5137C1833.14 -30.1859 1831.47 -31.8581 1830.06 -33.5303C1779.41 -84.1355 1713.07 -115.291 1642.16 -121.803C1624.72 -203.564 1579.17 -275.819 1513.02 -326.336C1450.82 -374.389 1376.56 -400 1298.16 -400C1188.22 -400 1086.65 -350.011 1019.44 -262.882C987.373 -221.606 964.557 -172.937 953.634 -122.067C882.456 -115.643 815.771 -84.3995 765.206 -33.7943C763.797 -32.3861 762.123 -30.714 761.242 -29.5699C707.241 26.3159 676.85 99.7154 675.441 176.723C675.441 179.012 675.176 180.948 675.176 183.148C675.176 185.964 675.176 188.165 675.176 189.045L675 188.957ZM827.134 33.2686C863.164 -2.72711 911.791 -25.7855 966.055 -28.5137C967.993 -5.71936 971.693 20.6833 980.15 46.2059H976.802C936.544 46.2059 905.624 59.1432 880.606 83.2578C855.852 115.293 840.348 147.592 840.348 187.812C840.348 219.848 856.381 256.108 880.254 281.102C904.127 305.833 939.011 322.73 976.714 322.994V321.322C1016.97 321.322 1049.57 305.833 1074.58 280.838H1075.11C1077.93 278.022 1080.49 275.206 1082.95 272.389L1048.95 246.515L1197.74 196.525L1186.72 353.358L1147.88 322.202C1098.1 398.594 1114.67 502.357 1188.13 559.651C1266.36 620.377 1379.12 606.031 1439.9 527.879C1499.8 448.671 1486.32 337.34 1408.36 276.702C1380.26 257.604 1349.87 242.994 1318.33 230.321C1252.53 204.182 1184.17 193.533 1129.64 144.864C1026.4 56.0629 1008.96 -98.745 1094.23 -208.404C1181.17 -321.056 1343.44 -342.97 1457.08 -255.049C1532.22 -197.755 1567.37 -107.282 1556.62 -19.5369C1576.35 -25.6975 1596.53 -28.7778 1620.75 -28.7778C1677.04 -28.7778 1731.04 -4.04724 1769.54 34.4127L1767.87 35.5568C1806.36 74.0168 1830.32 123.478 1830.32 187.9C1830.32 244.138 1806.71 297.736 1768.48 336.284L1768.75 334.348C1733.33 369.463 1686.03 392.522 1633.17 395.866C1631.24 373.952 1627.8 348.957 1619.96 324.491C1619.7 323.346 1619.43 322.554 1619.08 321.41H1621.37C1653.43 321.41 1693.69 305.921 1717.83 281.19C1742.05 256.196 1755.53 220.2 1755.53 187.9C1755.53 147.68 1740.03 115.645 1715.27 83.3458H1715.01C1689.99 59.1432 1653.43 46.558 1621.1 46.2939C1580.85 46.2939 1547.11 61.4315 1522.09 86.5141H1520.42C1517.86 89.0663 1515.04 91.8826 1512.58 94.6989L1547.46 121.982L1399.2 170.299L1409.07 14.0826L1449.85 45.8539C1499.1 -31.6821 1482.45 -135.357 1407.66 -192.122C1330.05 -251.705 1217.56 -237.359 1156.77 -159.207C1097.14 -81.6712 1111.49 30.7163 1189.72 91.4426C1197.56 97.3392 1206.63 102.708 1215.62 107.724C1293.23 147.944 1385.55 160.266 1456.99 212.807C1570.63 300.728 1591.15 463.193 1503.15 576.724C1416.2 689.376 1253.41 710.234 1139.77 622.225C1065.51 564.579 1030.63 474.458 1041.02 387.065C1021.02 393.226 1001.91 396.658 977.771 396.658C921.481 396.658 866.423 373.864 827.839 335.404L828.368 336.548C789.872 298.088 766.175 244.402 766.175 188.165C766.175 123.83 790.048 74.3688 828.368 35.8209L827.222 33.5327L827.134 33.2686Z" fill="white"/>
</svg>
