<svg width="59" height="55" viewBox="0 0 59 55" fill="none" xmlns="http://www.w3.org/2000/svg">
<path d="M59 27.2428C58.9332 23.4683 57.4262 19.9302 54.7335 17.2715C54.6667 17.2051 54.6125 17.1512 54.5749 17.1263C52.187 14.8367 49.0978 13.4182 45.804 13.0988C44.9649 9.27036 42.8191 5.8816 39.7257 3.49661C36.7534 1.20701 33.2092 0 29.477 0C24.2671 0 19.4663 2.34351 16.2936 6.43741C14.7615 8.41176 13.6803 10.7014 13.1459 13.1112C9.86882 13.4306 6.78794 14.845 4.4418 17.1097C4.38753 17.1636 4.32074 17.2176 4.26647 17.2673C1.59888 19.9302 0.0793178 23.4517 0.0125238 27.1889C-1.11195e-07 27.2968 0 27.388 0 27.4917C0 27.5954 -1.11195e-07 27.6908 0.0125238 27.7696C0.0793178 31.4114 1.51956 34.8831 4.04939 37.4921C4.11618 37.5709 4.1955 37.6497 4.26229 37.7285C6.6627 40.1135 9.8062 41.5818 13.1668 41.8888C13.9933 45.7421 16.1516 49.1474 19.2868 51.5283C22.2341 53.793 25.7533 55 29.4687 55C34.6786 55 39.492 52.644 42.6772 48.5377C44.1968 46.5924 45.278 44.2986 45.7957 41.9012C49.1688 41.5984 52.3289 40.1259 54.7252 37.7409C54.792 37.6746 54.8713 37.5958 54.913 37.5419C57.4721 34.908 58.9123 31.4487 58.9791 27.8194C58.9791 27.7115 58.9916 27.6203 58.9916 27.5166C58.9916 27.3839 58.9916 27.2802 58.9916 27.2387L59 27.2428ZM51.7904 34.5803C50.083 36.2768 47.7786 37.3635 45.207 37.4921C45.1152 36.4178 44.9399 35.1735 44.5391 33.9706H44.6977C46.6055 33.9706 48.0708 33.3609 49.2564 32.2244C50.4295 30.7146 51.1642 29.1923 51.1642 27.2968C51.1642 25.787 50.4044 24.0781 49.2731 22.9001C48.1418 21.7345 46.4886 20.9382 44.7019 20.9257V21.0045C42.7941 21.0045 41.2495 21.7345 40.0639 22.9125H40.0388C39.9053 23.0452 39.7842 23.178 39.6673 23.3107L41.2787 24.5302L34.2278 26.8861L34.7496 19.4947L36.5906 20.963C38.9493 17.3627 38.1644 12.4725 34.6828 9.77225C30.9757 6.91025 25.6322 7.58635 22.7517 11.2696C19.913 15.0026 20.5517 20.2496 24.2462 23.1075C25.5779 24.0075 27.0182 24.6961 28.5127 25.2934C31.6311 26.5253 34.8707 27.0271 37.4548 29.3209C42.3474 33.506 43.174 40.802 39.1329 45.9702C35.0126 51.2794 27.3229 52.3122 21.9377 48.1685C18.3767 45.4683 16.711 41.2044 17.2203 37.069C16.2852 37.3594 15.3292 37.5045 14.1812 37.5045C11.5136 37.5045 8.95457 36.339 7.13026 34.5264L7.20958 34.4725C5.38527 32.6599 4.24977 30.3288 4.24977 27.2926C4.24977 24.6422 5.36857 22.1161 7.18036 20.2994L7.16783 20.3906C8.84603 18.7357 11.0878 17.6489 13.5926 17.4913C13.6844 18.5241 13.8472 19.7021 14.2188 20.8552C14.2313 20.9091 14.2438 20.9465 14.2605 21.0004H14.152C12.6324 21.0004 10.7246 21.7304 9.58077 22.8959C8.43275 24.0739 7.79403 25.7704 7.79403 27.2926C7.79403 29.1882 8.52876 30.698 9.70183 32.2202H9.71436C10.9 33.3609 12.6324 33.954 14.1645 33.9664C16.0723 33.9664 17.6712 33.253 18.8568 32.0709H18.9361C19.0572 31.9506 19.1908 31.8179 19.3076 31.6851L17.6545 30.3993L24.6804 28.1222L24.2128 35.4845L22.28 33.9872C19.9464 37.6414 20.7354 42.5275 24.2796 45.2029C27.9575 48.0109 33.2885 47.3348 36.169 43.6516C38.9952 39.9974 38.3147 34.7006 34.6077 31.8386C34.2361 31.5607 33.8061 31.3077 33.3803 31.0713C29.7025 29.1757 25.3275 28.595 21.9418 26.1188C16.5566 21.9751 15.5839 14.3182 19.7543 8.96757C23.8747 3.65837 31.5894 2.67534 36.9747 6.82315C40.4939 9.53997 42.147 13.7873 41.6544 17.9061C42.6021 17.6158 43.508 17.454 44.6518 17.454C47.3194 17.454 49.9285 18.5283 51.757 20.3409L51.732 20.287C53.5563 22.0995 54.6793 24.6297 54.6793 27.2802C54.6793 30.3122 53.5479 32.6433 51.732 34.46L51.7862 34.5679L51.7904 34.5803Z" fill="#008CFF"/>
</svg>
