<svg width="46" height="47" viewBox="0 0 46 47" fill="none" xmlns="http://www.w3.org/2000/svg">
<g clip-path="url(#clip0_120_810)">
<path d="M33.291 37.0414C32.3257 37.0414 31.5432 36.2383 31.5432 35.2476V20.1798C31.5432 19.1891 32.3257 18.386 33.291 18.386C34.2563 18.386 35.0388 19.1891 35.0388 20.1798V35.2477C35.0388 36.2383 34.2563 37.0414 33.291 37.0414ZM37.0769 43.1586L42.5107 37.628C44.4823 35.6213 45.613 32.8359 45.613 29.9861V11.1211C45.613 5.18657 40.9086 0.358398 35.1262 0.358398H16.79C14.0054 0.358398 11.3827 1.4667 9.40559 3.47926L3.97174 9.00991C2.00014 11.0165 0.869385 13.802 0.869385 16.6519V35.5168C0.869385 41.4513 5.57375 46.2795 11.3562 46.2795H29.6924C32.4772 46.2795 35.0997 45.1712 37.0769 43.1586ZM35.1262 3.94598C38.9812 3.94598 42.1174 7.16473 42.1174 11.1211V29.986C42.1174 31.8859 41.3636 33.7429 40.0492 35.0807L34.6154 40.6114C33.2973 41.953 31.5489 42.6919 29.6924 42.6919H11.3562C7.50119 42.6919 4.36498 39.4732 4.36498 35.5168V16.6519C4.36498 14.752 5.11884 12.895 6.43321 11.5572L11.867 6.0265C13.1851 4.68484 14.9335 3.94598 16.79 3.94598H35.1262ZM37.1839 11.5265L37.9189 10.7915C38.6104 10.1002 38.6247 8.9645 37.9511 8.25496C37.2775 7.54534 36.1708 7.53055 35.4796 8.22193L34.7445 8.95693C33.349 10.3526 31.5073 11.1211 29.5589 11.1211H12.1427C11.1774 11.1211 10.3949 11.9243 10.3949 12.915C10.3949 13.9057 11.1774 14.7088 12.1427 14.7088H29.5588C32.4238 14.7087 35.1318 13.5786 37.1839 11.5265Z" fill="white"/>
</g>
<defs>
<clipPath id="clip0_120_810">
<rect width="44.7436" height="45.9211" fill="white" transform="translate(0.869385 0.358398)"/>
</clipPath>
</defs>
</svg>
